<?xml version="1.0" encoding="utf-8"?>
<svg version="1.1" style="fill:#ffffff;" xmlns="http://www.w3.org/2000/svg" x="0px" y="0px" viewBox="65 8 200 55">
<path class="st0" d="M153.9,22.5h17.3c0.4,0.1,0.9,0.1,1.3,0.2c1.5,0.4,2.9,1.2,3.9,2.4c1.3,1.4,1.9,3.2,1.6,5.1
	c-0.1,1.5-0.8,2.8-1.8,3.9c-1.2,1.2-2.8,2-4.5,2.2c-0.1,0-0.2,0-0.3,0.1c0.2,0.2,0.4,0.4,0.6,0.6l2.8,3.2c1,1.1,1.9,2.2,2.9,3.3
	c0.2,0.3,0.4,0.5,0.7,0.8h-6.9c0-0.1-0.1-0.2-0.1-0.2c-2.1-2.5-4.1-5-6.2-7.5c-0.1-0.1-0.2-0.2-0.4-0.2c-2.3,0-4.7,0-7,0
	c-0.1,0-0.2,0-0.2,0v2.5l0,5.4h-5.9c0-0.1,0-0.2,0-0.3c0-4,0-8.1,0-12.1c0-0.1,0-0.2,0-0.3c0.1,0,0.2,0,0.3,0c2.2,0,4.5,0,6.7,0
	c3.4,0,6.7,0,10.1,0c0.5,0,1,0,1.5,0c1.2,0,2.1-1,2-2.1c0-0.5-0.2-1.1-0.6-1.4c-0.4-0.4-1-0.6-1.5-0.6c-6.2,0-12.4,0-18.6,0
	c-0.1,0-0.2,0-0.4,0c0.2-0.3,0.3-0.5,0.4-0.7C152.2,25.3,153.1,23.9,153.9,22.5z"/>
<path class="st0" d="M240.8,22.5c-0.1,0.1-0.1,0.2-0.2,0.3c-0.9,0.9-1.8,1.7-2.7,2.6c-0.7,0.6-1.4,1.3-2,1.9
	c-0.1,0.1-0.2,0.1-0.3,0.1c-0.6,0-1.1,0-1.7,0c-3.6,0-7.2,0-10.9,0c-1,0-1.9,0.5-2.4,1.3c-0.2,0.3-0.3,0.7-0.3,1.1
	c0,2.4,0,4.7,0,7.1c0,0.6,0.2,1.2,0.7,1.6c0.5,0.6,1.3,0.9,2.1,0.9c4.1,0,8.3,0,12.4,0c0.2,0,0.4,0.1,0.6,0.2
	c0.9,0.8,1.8,1.7,2.6,2.5c0.7,0.7,1.4,1.3,2.1,2c0.1,0.1,0.1,0.1,0.2,0.2h-19.4c0,0-0.1,0-0.1,0c-0.4,0-0.8-0.1-1.2-0.1
	c-2-0.3-3.7-1.4-4.8-3.1c-0.7-0.9-1-2-1-3.1c0-3.1,0-6.2,0-9.3c0-0.3,0-0.7,0.1-1c0.3-1.1,0.8-2,1.6-2.8c1-1,2.3-1.8,3.7-2.1
	c0.4-0.1,0.9-0.2,1.3-0.3L240.8,22.5L240.8,22.5z"/>
<path class="st0" d="M186.6,44.3h-6.4c0-0.1,0.1-0.2,0.1-0.3c0.5-0.8,0.9-1.5,1.4-2.3c1.3-2.1,2.6-4.3,3.9-6.4
	c1.3-2.1,2.5-4.1,3.8-6.2c1.2-2,2.4-3.9,3.6-5.9c0.2-0.3,0.3-0.5,0.4-0.8h6c0,0.1,0.1,0.2,0.1,0.3c1.2,2,2.4,3.9,3.5,5.9
	c1.8,3,3.7,6.1,5.5,9.1c1.2,2,2.4,4,3.6,6c0.1,0.2,0.2,0.3,0.3,0.5h-6.4c-0.1-0.1-0.1-0.2-0.1-0.2c-1.1-1.8-2.2-3.7-3.3-5.5
	c-2-3.4-4.1-6.9-6.1-10.3c0-0.1-0.1-0.1-0.1-0.2c-0.1,0.1-0.1,0.1-0.1,0.2c-1.2,2.1-2.5,4.1-3.7,6.2c-1.7,2.9-3.4,5.7-5.1,8.6
	C187.1,43.4,186.9,43.8,186.6,44.3z"/>
<path class="st0" d="M151.1,22.5c0,0.1,0,0.1,0,0.1c-0.9,1.5-1.8,3.1-2.7,4.6c0,0,0,0.1-0.1,0.1h-10.1v0.4c0,5.4,0,10.7,0,16.1
	c0,0.1,0,0.3,0,0.4h-5.9c0-0.1,0-0.3,0-0.4V27.4l0,0c0,0,0,0,0,0c0,0,0,0-0.1,0h-11.5c0,0,0,0-0.1,0c0,0,0,0-0.1,0
	c0-0.1,0.1-0.1,0.1-0.2c0.8-1.4,1.7-2.9,2.5-4.3c0.1-0.1,0.1-0.2,0.2-0.3H151.1L151.1,22.5z"/>
<path class="st0" d="M257.4,44.3c-1.7-1.7-3.3-3.4-5-5c-1.2-1.2-2.4-2.4-3.6-3.6c-0.7-0.7-1.4-1.4-2-2c-0.1-0.1-0.2-0.1-0.3-0.2
	c0.4-0.4,0.7-0.7,1-1c0.1-0.1,0.2-0.2,0.3-0.3c1.3-1.4,2.7-2.7,4-4.1c1.6-1.6,3.2-3.2,4.8-4.8c0.3-0.3,0.5-0.5,0.7-0.8
	c2.4,0,4.8,0,7.2,0c0.1,0,0.2-0.1,0.2,0.1c0,0-0.1,0-0.1,0.1c-1.7,1.7-3.4,3.4-5,5.1c-0.9,0.9-1.9,1.9-2.8,2.8
	c-0.9,0.9-1.8,1.8-2.7,2.7c-0.1,0.1-0.1,0.1-0.2,0.2c0.1,0.1,0.2,0.2,0.3,0.2c0.9,0.9,1.8,1.8,2.7,2.7c1.6,1.6,3.2,3.2,4.8,4.8
	c1,1,2.1,2.1,3.1,3.1c0,0.1-0.1,0.1-0.2,0.1c-1.4,0-2.9,0-4.3,0L257.4,44.3L257.4,44.3z"/>
<path class="st0" d="M253.2,22.5c-0.1,0.1-0.1,0.2-0.2,0.3c-1.1,1.1-2.2,2.2-3.2,3.3c-1.3,1.3-2.7,2.7-4,4c-1.1,1.1-2.1,2.1-3.2,3.2
	c-0.1,0.1-0.2,0.2-0.4,0.2c-2.3,0-4.6,0-7,0c-0.1,0-0.1,0-0.2,0c0-0.1,0.1-0.2,0.2-0.3c1-1,1.9-1.9,2.9-2.9c0.8-0.8,1.6-1.6,2.4-2.4
	c1.6-1.6,3.2-3.2,4.8-4.8c0.2-0.2,0.4-0.4,0.6-0.6L253.2,22.5L253.2,22.5z"/>
<path class="st0" d="M88.5,41.1c-1.1,1.6-2.9,2.7-4.8,3.1c-0.4,0.1-0.8,0.1-1.2,0.1c0,0-0.1,0-0.1,0H67.7c0,0-0.1,0-0.1,0
	c-0.4,0-0.8-0.1-1.2-0.1c-2-0.3-3.7-1.4-4.8-3.1c-0.7-0.9-1-2-1-3.1c0-3.1,0-6.2,0-9.3c0-0.3,0-0.7,0.1-1c0.3-1.1,0.8-2,1.6-2.8
	c1-1,2.3-1.8,3.7-2.1c0.4-0.1,0.9-0.2,1.3-0.3h15.6c0.4,0.1,0.9,0.1,1.3,0.3c1.4,0.3,2.7,1.1,3.7,2.1c0.8,0.8,1.3,1.7,1.6,2.8
	c0.1,0.3,0.1,0.7,0.1,1c0,3.1,0,6.2,0,9.3C89.5,39.1,89.2,40.1,88.5,41.1z M83.3,28.7c-0.5-0.9-1.4-1.4-2.4-1.3c0.6,0-6,0-11.7,0
	c-1,0-1.9,0.5-2.4,1.3c-0.2,0.3-0.3,0.7-0.3,1.1c0,2.4,0,4.7,0,7.1c0,0.6,0.2,1.2,0.7,1.6c0.5,0.6,1.3,0.9,2.1,0.9c-2,0,7,0,11.6,0
	c0.8,0,1.6-0.3,2.1-0.9c0.4-0.4,0.6-1,0.7-1.6c0-2.4,0-4.7,0-7.1C83.6,29.4,83.5,29.1,83.3,28.7z"/>
<path class="st0" d="M94,22.5h17.3c0.4,0.1,0.9,0.1,1.3,0.2c1.5,0.4,2.9,1.2,3.9,2.4c1.3,1.4,1.8,3.2,1.6,5.1
	c-0.1,1.5-0.8,2.8-1.8,3.9c-1.2,1.2-2.8,2-4.5,2.2c-0.1,0-0.2,0-0.3,0.1c0.2,0.2,0.4,0.4,0.6,0.6c0.9,1.1,1.9,2.1,2.8,3.2
	c1,1.1,1.9,2.2,2.9,3.3c0.2,0.3,0.4,0.5,0.7,0.8h-6.9c0-0.1-0.1-0.2-0.1-0.2c-2.1-2.5-4.1-5-6.2-7.5c-0.1-0.1-0.2-0.2-0.4-0.2
	c-2.3,0-4.7,0-7,0c-0.1,0-0.2,0-0.2,0v0.3c0,0.7,0,1.4,0,2.2l0,5.4h-5.9c0-0.1,0-0.2,0-0.3c0-4,0-8.1,0-12.1c0-0.1,0-0.2,0-0.3
	c0.1,0,0.2,0,0.3,0c2.2,0,4.5,0,6.7,0c3.4,0,6.7,0,10.1,0c0.5,0,1,0,1.5,0c1.2,0,2.1-1,2-2.1c0-0.5-0.2-1.1-0.6-1.4
	c-0.4-0.4-1-0.6-1.5-0.6c-6.2,0-12.4,0-18.6,0c-0.1,0-0.2,0-0.4,0c0.2-0.3,0.3-0.5,0.4-0.7C92.4,25.3,93.2,23.9,94,22.5L94,22.5z"/>
<path class="st0" d="M56.7,42.7c-1,1.2-2.4,2-3.9,2.4c-0.4,0.1-0.9,0.2-1.3,0.2c-5.8,0-16,0.1-21.7,0.1c1.2-1.6,2.5-3.1,4-4.5
	c0.5-0.3,1-0.5,1.6-0.5c0.2,0,0.3,0,0.4,0c6.2,0,8.4,0,14.6,0c0.6,0,1.1-0.2,1.5-0.6c0.8-0.8,0.8-2.1,0-3c-0.4-0.4-0.9-0.6-1.4-0.6
	c-0.3,0-0.5,0-0.8,0c0,0.1,0,0.1-0.1,0.2c-2.3,0-7.3,0-10.4,0c0.4,0,2.6,0-2.1-0.1c-0.1,0-0.2-0.1-0.3-0.1c-1.7-0.2-3.3-1-4.5-2.2
	c-1.1-1-1.7-2.4-1.8-3.9c-0.2-1.8,0.4-3.7,1.6-5.1c1-1.2,2.4-2,3.9-2.4c0.4-0.1,0.9-0.2,1.3-0.2c5.8,0,15-0.1,20.7-0.1
	c-1.1,1.6-2.2,3.1-3.5,4.5c-0.2,0.2-0.4,0.3-0.6,0.5c-0.2,0-0.3,0-0.4,0c-6.2,0-8.9,0-15.1,0c-0.6,0-1.1,0.2-1.5,0.6
	c-0.8,0.8-0.8,2.1,0,3c0.4,0.4,0.9,0.6,1.4,0.6c0.3,0,0.5,0,0.8,0c0-0.1,0-0.1,0.1-0.2c2.3,0,4.3,0,7.5,0c-0.4,0,0.4,0,5.1,0.1
	c0.1,0,0.2,0.1,0.3,0.1c1.7,0.2,3.3,1,4.5,2.2c1.1,1,1.7,2.4,1.8,3.9C58.6,39.5,58,41.3,56.7,42.7z"/>
<path class="st0" d="M38.7,36.4L38.7,36.4z"/>
<path class="st0" d="M47,31.4L47,31.4z"/>
<polygon class="st0" points="268.6,22.7 268.6,23.3 271.1,23.3 271.1,26.9 272.1,26.9 272.1,23.3 274.6,23.3 274.6,22.7 268.6,22.7 
	"/>
<path class="st0" d="M279.7,22.7c-0.3,0-0.5,0-0.7,0.1c-0.2-0.1-0.4-0.1-0.6-0.1h-2c-0.6-0.1-1.2,0.4-1.2,1c0,0.1,0,0.1,0,0.2v3.1h1
	v-3.1c0-0.3,0.2-0.5,0.4-0.6c0,0,0,0,0,0h1.5c0.3,0,0.5,0.2,0.5,0.5c0,0,0,0,0,0.1v3.1h1.1v-3.1c0-0.3,0.1-0.5,0.4-0.6h1.4
	c0.3,0,0.5,0.3,0.5,0.6v3.1h1v-3.1c0-0.6-0.4-1.1-1-1.1c-0.1,0-0.1,0-0.2,0L279.7,22.7L279.7,22.7z"/>
</svg>
